<svg xmlns:xlink="http://www.w3.org/1999/xlink" xmlns="http://www.w3.org/2000/svg" width="239.174" height="231.215" viewBox="0 0 239.174 231.215">
  <g id="Fill_out-pana" data-name="Fill out-pana" transform="translate(-23.42 -29.12)">
    <g id="freepik--background-complete--inject-38" transform="translate(32.329 29.12)">
      <rect id="Rectangle_110293" data-name="Rectangle 110293" width="117.476" height="165.394" transform="translate(99.425 34.613)" fill="#ebebeb"></rect>
      <path id="Path_150577" data-name="Path 150577" d="M412.609,55.032a15.639,15.639,0,0,1,3.816-1.657l.786-3.779,6.386-.116.918,3.753a15.611,15.611,0,0,1,3.879,1.525l3.225-2.111,4.6,4.433-2,3.3a15.667,15.667,0,0,1,1.657,3.821l3.779.786.111,6.386-3.747.918a15.7,15.7,0,0,1-1.525,3.874L436.6,79.4l-4.439,4.592-3.3-2a15.654,15.654,0,0,1-3.816,1.663l-.786,3.779-6.386.111-.918-3.747a15.7,15.7,0,0,1-3.874-1.525l-3.23,2.111-4.592-4.439,2-3.3a15.4,15.4,0,0,1-1.663-3.821l-3.779-.786-.111-6.386,3.747-.918a15.866,15.866,0,0,1,1.525-3.874l-2.111-3.225,4.439-4.6Zm3.4,8.508a4.844,4.844,0,1,1,0,.011Z" transform="translate(-210.961 -38.734)" fill="#e0e0e0"></path>
      <path id="Path_150578" data-name="Path 150578" d="M426.963,74.147a5.136,5.136,0,0,1,1.277-1.129,6.787,6.787,0,0,1,4.465-1.056,6.893,6.893,0,0,1,3.04,1.056,7.053,7.053,0,0,1-2.686,12.852,6.6,6.6,0,0,1-2.111.032,6.486,6.486,0,0,1-1.942-.528,6.944,6.944,0,0,1-3.14-9.859,5.219,5.219,0,0,1,1.056-1.314c.037.032-.412.449-.939,1.388a6.825,6.825,0,0,0-.76,4.386,6.7,6.7,0,0,0,1.177,2.855,6.691,6.691,0,0,0,6.576,2.686,6.65,6.65,0,0,0,5.468-5.663,6.782,6.782,0,0,0-.607-3.821,6.7,6.7,0,0,0-2.312-2.639,6.6,6.6,0,0,0-2.892-1.056,6.814,6.814,0,0,0-4.354.913A10.916,10.916,0,0,0,426.963,74.147Z" transform="translate(-221.911 -49.33)" fill="#e0e0e0"></path>
      <path id="Path_150579" data-name="Path 150579" d="M412.472,54.943a1.288,1.288,0,0,1-.211-.111l-.633-.364-2.512-1.462h.079l-4.407,4.623V57.5l2.111,3.22.106.026-.032.063a15.459,15.459,0,0,0-1.5,3.848v.074H405.4l-3.747.929.106-.137q.063,3.019.127,6.386l-.158-.079,3.779.776h.1l.026.1a15.34,15.34,0,0,0,1.647,3.774l.053.09-.053.09-2,3.3-.026-.216,4.6,4.433h-.227l3.225-2.111.1-.063.1.058a15.719,15.719,0,0,0,3.827,1.5h.111l.032.111c.285,1.172.6,2.454.918,3.747l-.19-.143,6.386-.116-.19.153.786-3.779.026-.116.116-.032a15.455,15.455,0,0,0,3.763-1.636h0l.106-.058.1.058,3.3,2.006h-.243l4.433-4.592v.243l-2.111-3.23-.069-.1.058-.106a15.454,15.454,0,0,0,1.509-3.821l.026-.116h.111l3.753-.913-.142.185q-.053-3.272-.106-6.386l.142.174-3.779-.792h-.106l-.026-.106a15.621,15.621,0,0,0-1.636-3.779l-.053-.09.021-.111,2.006-3.3.026.206-4.587-4.449h.19l-3.235,2.111-.069.047-.074-.042a15.48,15.48,0,0,0-3.837-1.52h-.079V53.2c-.333-1.367-.628-2.591-.908-3.753l.116.09-6.386.079.084-.069c-.327,1.509-.591,2.745-.813,3.774v.037h-.037a16.551,16.551,0,0,0-2.924,1.124l-.686.359a1.585,1.585,0,0,1-.227.116,2.473,2.473,0,0,1,.211-.143c.148-.09.369-.227.676-.391a15.468,15.468,0,0,1,2.913-1.188l-.042.048c.206-1.056.454-2.27.76-3.784v-.069h.069l6.386-.143h.09v.09c.285,1.161.591,2.386.929,3.747l-.095-.1a15.8,15.8,0,0,1,3.916,1.525h-.148l3.22-2.111.1-.063.09.079,4.6,4.428.1.09-.069.111c-.649,1.056-1.309,2.174-2,3.3v-.174a15.923,15.923,0,0,1,1.684,3.858l-.132-.127,3.779.786h.142v.148q.063,3.109.121,6.381v.153l-.143.032-3.747.924.137-.137a15.95,15.95,0,0,1-1.541,3.921v-.2l2.111,3.23.084.127-.111.111-4.433,4.6-.106.111-.137-.079-3.256-1.984h.2a15.744,15.744,0,0,1-3.863,1.678l.137-.148-.786,3.779-.032.153h-.158l-6.386.106H417.6l-.037-.148c-.317-1.3-.628-2.576-.913-3.753l.137.143a16.2,16.2,0,0,1-3.921-1.546h.2l-3.23,2.111-.121.079-.106-.1c-1.583-1.546-3.167-3.051-4.592-4.444l-.1-.1.074-.116,2.006-3.3v.179a15.966,15.966,0,0,1-1.668-3.863l.1.106-3.779-.792h-.121v-.121q-.058-3.362-.1-6.386v-.111l.106-.026,3.753-.908-.09.09a15.714,15.714,0,0,1,1.562-3.885v.116l-2.111-3.235-.042-.069.058-.053,4.46-4.6.037-.037.042.026,2.428,1.515.628.4A2.481,2.481,0,0,1,412.472,54.943Z" transform="translate(-210.824 -38.644)" fill="#e0e0e0"></path>
      <path id="Path_150580" data-name="Path 150580" d="M363.728,32.56a9.558,9.558,0,0,1,2.291-.992l.47-2.259,3.821-.069.528,2.243a9.283,9.283,0,0,1,2.322.913l1.932-1.267,2.75,2.639-1.2,1.974a9.206,9.206,0,0,1,1.04,2.3l2.264.475.069,3.821-2.248.528a9.284,9.284,0,0,1-.913,2.322l1.267,1.932-2.639,2.75-2.021-1.177a9.406,9.406,0,0,1-2.28,1l-.47,2.264-3.826.063-.528-2.243a9.247,9.247,0,0,1-2.317-.913l-1.932,1.267-2.75-2.639,1.172-2.021a9.609,9.609,0,0,1-.992-2.285l-2.259-.47-.069-3.826,2.243-.528a9.373,9.373,0,0,1,.913-2.317L359.1,34.117l2.639-2.755,1.974,1.2Zm2.043,5.093a4.1,4.1,0,1,0,2.882-1.257,4.1,4.1,0,0,0-2.882,1.257Z" transform="translate(-189.948 -29.177)" fill="#f5f5f5"></path>
      <path id="Path_150581" data-name="Path 150581" d="M372.312,43.991a3.067,3.067,0,0,1,.76-.67,4.085,4.085,0,0,1,2.676-.633,4.159,4.159,0,0,1,3.288,2.306,3.778,3.778,0,0,1,.375,1.151,3.885,3.885,0,0,1,0,1.261A4.18,4.18,0,0,1,375.954,51a4.085,4.085,0,0,1-1.267,0,4.2,4.2,0,0,1-2.871-1.747,4.112,4.112,0,0,1-.707-1.794,4.069,4.069,0,0,1,.528-2.7,3.166,3.166,0,0,1,.644-.786,4.789,4.789,0,0,0-.565.834,4.027,4.027,0,0,0,1.884,5.658,3.7,3.7,0,0,0,1.108.306,3.494,3.494,0,0,0,1.193-.026,3.958,3.958,0,0,0,3.272-3.388,3.615,3.615,0,0,0,0-1.193,3.941,3.941,0,0,0-.343-1.093,4.053,4.053,0,0,0-1.388-1.583,3.963,3.963,0,0,0-1.71-.644,4.111,4.111,0,0,0-2.639.528C372.57,43.738,372.328,44.012,372.312,43.991Z" transform="translate(-196.489 -35.515)" fill="#f5f5f5"></path>
      <path id="Path_150582" data-name="Path 150582" d="M363.653,32.5l-.127-.063-.375-.222-1.488-.876h.042l-2.639,2.766v-.074l1.272,1.926v.074a9.585,9.585,0,0,0-.9,2.306v.042H359.4l-2.243.559.063-.084c0,1.2.048,2.481.074,3.821l-.074-.09,2.264.47h.058v.058a9.344,9.344,0,0,0,.987,2.259l.032.053-.032.053-1.193,1.974v-.127l2.755,2.639h-.137l1.932-1.267.058-.037L364,48.7a9.29,9.29,0,0,0,2.291.9h.069v.069c.174.7.364,1.467.554,2.243l-.116-.084,3.821-.069-.111.09c.148-.713.311-1.483.47-2.259v-.074h.069a9.458,9.458,0,0,0,2.254-.982h0l.063-.037.063.037,1.974,1.2h-.148c.9-.929,1.784-1.842,2.639-2.75v.148l-1.267-1.932-.037-.063.032-.058a9.241,9.241,0,0,0,.9-2.291v-.069h.063l2.243-.528-.084.111q-.032-1.953-.063-3.821l.09.106-2.264-.475h-.063V38.04a9.351,9.351,0,0,0-.976-2.264l-.037-.053.037-.053,1.2-1.969v.116q-1.449-1.4-2.745-2.639h.111l-1.937,1.261-.042.032h-.042a9.294,9.294,0,0,0-2.264-.971H370.7v-.042c-.2-.818-.375-1.552-.528-2.248l.069.053-3.821.048.053-.037c-.2.9-.354,1.641-.486,2.259h0a10.026,10.026,0,0,0-1.784.691l-.412.216a.49.49,0,0,1-.137.069l.132-.084c.084-.053.216-.137.4-.232a9.206,9.206,0,0,1,1.747-.713l-.026.032c.121-.618.269-1.362.454-2.27V29.2h.042l3.821-.084h.053v.058c.174.691.354,1.425.528,2.243l-.053-.058a9.353,9.353,0,0,1,2.338.913h-.084L374.969,31l.063-.042.053.053,2.755,2.639.053.053-.037.069-1.2,1.974v-.106a9.358,9.358,0,0,1,1.008,2.312l-.079-.074,2.264.47h.084v.084c.026,1.246.047,2.518.074,3.826v.084l-.084.026-2.248.528.084-.084a9.4,9.4,0,0,1-.918,2.349v-.116L378.135,47l.048.074-.063.069-2.639,2.75-.063.069-.079-.048-1.979-1.2h.121a9.421,9.421,0,0,1-2.312,1l.084-.084c-.164.776-.322,1.546-.475,2.259v.1h-.1l-3.821.063h-.095v-.09c-.19-.776-.375-1.541-.528-2.248l.084.084a9.686,9.686,0,0,1-2.438-.9H364l-1.932,1.267-.074.047-.063-.047c-.95-.924-1.884-1.821-2.745-2.639l-.063-.058.047-.069,1.2-1.974v.106a9.5,9.5,0,0,1-1-2.312l.074.069-2.264-.512h-.074v-.074c0-1.341-.037-2.639-.058-3.821v-.069h.063l2.248-.528-.058.058a9.363,9.363,0,0,1,.929-2.338v.074l-1.256-1.937-.026-.042.032-.032c1.087-1.114,1.985-2.037,2.671-2.734h.026l1.457.908.37.238Z" transform="translate(-189.872 -29.12)" fill="#f5f5f5"></path>
      <rect id="Rectangle_110294" data-name="Rectangle 110294" width="69.093" height="114.372" transform="translate(2.296 11.807)" fill="#e0e0e0"></rect>
      <rect id="Rectangle_110295" data-name="Rectangle 110295" width="69.093" height="114.372" transform="translate(0 11.807)" fill="#ebebeb"></rect>
      <rect id="Rectangle_110296" data-name="Rectangle 110296" width="63.214" height="109.733" transform="translate(2.94 14.124)" fill="#fafafa"></rect>
      <rect id="Rectangle_110297" data-name="Rectangle 110297" width="38.872" height="81.217" transform="translate(14.973 28.385)" fill="#ebebeb"></rect>
      <path id="Path_150583" data-name="Path 150583" d="M68.669,155.517c-.09-7.584,6.735-14.989,14.25-16.05,3.584-.528,7.389.206,10.735-1.166,5.975-2.449,7.875-10.387,13.891-12.741l.274,58.7H68.669Z" transform="translate(-53.696 -74.66)" fill="#e0e0e0"></path>
      <path id="Path_150584" data-name="Path 150584" d="M349.439,416.352a10.191,10.191,0,0,1,2.512-1.093l.528-2.486,4.2-.074.607,2.465a10.414,10.414,0,0,1,2.549,1l2.111-1.388,3.019,2.913-1.314,2.169a10.364,10.364,0,0,1,1.092,2.512l2.486.528.074,4.222-2.486.575a10.5,10.5,0,0,1-1,2.549l1.388,2.111-2.913,3.019-2.174-1.314a10.194,10.194,0,0,1-2.512,1.093l-.528,2.486-4.2.074-.607-2.47a10.4,10.4,0,0,1-2.549-1l-2.111,1.388-3.019-2.919,1.314-2.169a10.193,10.193,0,0,1-1.093-2.512l-2.486-.528-.074-4.2,2.507-.586a10.416,10.416,0,0,1,1-2.549l-1.388-2.111,2.913-3.024,2.174,1.32Zm2.238,5.595a4.5,4.5,0,1,0,3.162-1.376A4.507,4.507,0,0,0,351.676,421.947Z" transform="translate(-182.883 -210.25)" fill="#f5f5f5"></path>
    </g>
    <g id="freepik--Table--inject-38" transform="translate(23.42 260.119)">
      <path id="Path_150585" data-name="Path 150585" d="M259.543,466.853h3.051v.048c-11.875.058-60.237.106-118.056.106l-85.65-.042L32.936,466.9H25.88l7.057-.026,25.952-.042,85.65-.042c57.82,0,106.181.048,118.056.106v.005h-2.3C259.791,466.864,259.543,466.853,259.543,466.853Z" transform="translate(-23.42 -466.79)" fill="#263238"></path>
    </g>
    <g id="freepik--Form--inject-38" transform="translate(121.368 54.971)">
      <rect id="Rectangle_110298" data-name="Rectangle 110298" width="118.294" height="166.914" transform="translate(0.137 0.143)" fill="#fff"></rect>
      <path id="Path_150586" data-name="Path 150586" d="M327.431,245.157c0-1.114-.053-68.312-.127-166.914l.127.121H209.148l.137-.137c0,62.549,0,120.389-.026,166.914l-.111-.111,118.294.111-118.294.111H209V78.1H327.558v.127C327.484,176.845,327.431,244.043,327.431,245.157Z" transform="translate(-209 -78.1)" fill="#263238"></path>
      <rect id="Rectangle_110299" data-name="Rectangle 110299" width="50.499" height="11.58" rx="5.79" transform="translate(8.102 110.963)" fill="#f5f5f5"></rect>
      <rect id="Rectangle_110300" data-name="Rectangle 110300" width="49.38" height="11.58" rx="5.79" transform="translate(61.915 110.963)" fill="#f5f5f5"></rect>
      <rect id="Rectangle_110301" data-name="Rectangle 110301" width="104.128" height="11.58" rx="5.79" transform="translate(7.864 134.692)" fill="#f5f5f5"></rect>
      <path id="Path_150587" data-name="Path 150587" d="M248.778,279.387c0,.074-4.877.137-10.9.137s-10.9-.063-10.9-.137,4.877-.137,10.9-.137S248.778,279.313,248.778,279.387Z" transform="translate(-217.49 -173.085)" fill="#263238"></path>
      <path id="Path_150588" data-name="Path 150588" d="M350.639,279.387c0,.074-3.842.137-8.582.137s-8.587-.063-8.587-.137,3.842-.137,8.587-.137S350.639,279.313,350.639,279.387Z" transform="translate(-267.776 -173.085)" fill="#263238"></path>
      <path id="Path_150589" data-name="Path 150589" d="M262.862,324.127c0,.074-7.917.137-17.681.137s-17.681-.063-17.681-.137,7.917-.137,17.681-.137S262.862,324.053,262.862,324.127Z" transform="translate(-217.736 -194.211)" fill="#263238"></path>
      <rect id="Rectangle_110302" data-name="Rectangle 110302" width="105.986" height="12.656" rx="6.328" transform="translate(6.006 84.674)" fill="#e0e0e0"></rect>
      <path id="Path_150590" data-name="Path 150590" d="M325.977,250.4c0,.079-9.405.137-21,.137s-21.006-.058-21.006-.137,9.405-.137,21.006-.137S325.977,250.323,325.977,250.4Z" transform="translate(-244.401 -159.395)" fill="#263238"></path>
      <rect id="Rectangle_110303" data-name="Rectangle 110303" width="105.986" height="12.656" rx="6.328" transform="translate(6.006 7.722)" fill="#e0e0e0"></rect>
      <path id="Path_150591" data-name="Path 150591" d="M325.977,104.6c0,.074-9.405.137-21,.137s-21.006-.063-21.006-.137,9.405-.137,21.006-.137S325.977,104.518,325.977,104.6Z" transform="translate(-244.401 -90.547)" fill="#263238"></path>
      <path id="Path_150592" data-name="Path 150592" d="M327.455,122.387c0,.079-26.506.143-59.2.143s-59.208-.063-59.208-.143,26.506-.137,59.208-.137S327.455,122.313,327.455,122.387Z" transform="translate(-209.024 -98.948)" fill="#ebebeb"></path>
      <path id="Path_150593" data-name="Path 150593" d="M327.455,228.477c0,.079-26.506.137-59.2.137s-59.208-.058-59.208-.137,26.506-.137,59.208-.137S327.455,228.4,327.455,228.477Z" transform="translate(-209.024 -149.045)" fill="#ebebeb"></path>
      <rect id="Rectangle_110304" data-name="Rectangle 110304" width="50.499" height="11.58" rx="5.79" transform="translate(8.102 36.133)" fill="#f5f5f5"></rect>
      <rect id="Rectangle_110305" data-name="Rectangle 110305" width="49.38" height="11.58" rx="5.79" transform="translate(61.915 36.133)" fill="#f5f5f5"></rect>
      <rect id="Rectangle_110306" data-name="Rectangle 110306" width="104.128" height="11.58" rx="5.79" transform="translate(7.864 59.862)" fill="#f5f5f5"></rect>
      <path id="Path_150594" data-name="Path 150594" d="M248.778,137.607c0,.074-4.877.137-10.9.137s-10.9-.063-10.9-.137,4.877-.137,10.9-.137S248.778,137.533,248.778,137.607Z" transform="translate(-217.49 -106.135)" fill="#263238"></path>
      <path id="Path_150595" data-name="Path 150595" d="M350.639,137.607c0,.074-3.842.137-8.582.137s-8.587-.063-8.587-.137,3.842-.137,8.587-.137S350.639,137.533,350.639,137.607Z" transform="translate(-267.776 -106.135)" fill="#263238"></path>
      <path id="Path_150596" data-name="Path 150596" d="M262.862,182.347c0,.074-7.917.137-17.681.137s-17.681-.063-17.681-.137,7.917-.137,17.681-.137S262.862,182.273,262.862,182.347Z" transform="translate(-217.736 -127.262)" fill="#263238"></path>
      <path id="Path_150597" data-name="Path 150597" d="M383.411,368.447c0,.079-7.722.137-17.248.137s-17.243-.058-17.243-.137,7.716-.137,17.243-.137S383.411,368.373,383.411,368.447Z" transform="translate(-275.071 -215.14)" fill="#263238"></path>
      <path id="Path_150598" data-name="Path 150598" d="M271.214,156a5.948,5.948,0,0,1-.818.206,9.674,9.674,0,0,1-6.1-.871,3.41,3.41,0,0,1-.934-.713,2.2,2.2,0,0,1-.565-1.124,1.657,1.657,0,0,1,.269-1.309,1.267,1.267,0,0,1,1.335-.422.95.95,0,0,1,.586.491,1.219,1.219,0,0,1,.1.771,2.777,2.777,0,0,1-.728,1.356,6.687,6.687,0,0,1-2.639,1.81,6.392,6.392,0,0,1-3.42.306,3.774,3.774,0,0,1-1.673-.734,1.99,1.99,0,0,1-.813-1.689,1.837,1.837,0,0,1,.364-.924,1.467,1.467,0,0,1,.834-.581,1.056,1.056,0,0,1,.987.327,1.483,1.483,0,0,1,.354.976,2.043,2.043,0,0,1-.243,1,2.286,2.286,0,0,1-.718.755,6.412,6.412,0,0,1-1.89.755,8.281,8.281,0,0,1-4.106.438,3.848,3.848,0,0,1-1.889-1.024,2.718,2.718,0,0,1-.823-2.021,1.81,1.81,0,0,1,.575-1.283,1.314,1.314,0,0,1,1.393-.148,1.056,1.056,0,0,1,.586,1.24,2.058,2.058,0,0,1-.823,1.093,10.777,10.777,0,0,1-4.75,1.805,4.872,4.872,0,0,1-2.475-.216,2.5,2.5,0,0,1-1.52-1.868,1.694,1.694,0,0,1,1.256-1.895,1.182,1.182,0,0,1,1.129.4,1.826,1.826,0,0,1,.4,1.1,2.206,2.206,0,0,1-.243,1.114,2.6,2.6,0,0,1-.749.818,5.805,5.805,0,0,1-1.937.813,6.462,6.462,0,0,1-3.863.137,3.3,3.3,0,0,1-1.467-1.056,2.417,2.417,0,0,1-.528-1.631,2.28,2.28,0,0,1,.707-1.43,1.546,1.546,0,0,1,1.409-.422h.053v.053a4.09,4.09,0,0,1-1.056,2.808,4.259,4.259,0,0,1-1.853,1.261,3.447,3.447,0,0,1-1.383.179c-.317-.048-.475-.09-.475-.09a3.663,3.663,0,0,0,1.831-.169,4.223,4.223,0,0,0,1.789-1.256,4,4,0,0,0,.971-2.723l.058.069a1.414,1.414,0,0,0-1.261.4,2.111,2.111,0,0,0-.639,1.325A2.646,2.646,0,0,0,237.7,156.7a6.6,6.6,0,0,0,3.737-.164,5.605,5.605,0,0,0,1.858-.786,2.381,2.381,0,0,0,.676-.739,1.937,1.937,0,0,0,.211-.992,1.583,1.583,0,0,0-.338-.945.934.934,0,0,0-.9-.322,1.451,1.451,0,0,0-1.056,1.62,2.238,2.238,0,0,0,1.367,1.657,4.608,4.608,0,0,0,2.343.2,10.472,10.472,0,0,0,4.618-1.763,1.832,1.832,0,0,0,.723-.934.786.786,0,0,0-.443-.929,1.056,1.056,0,0,0-1.093.111,1.531,1.531,0,0,0-.48,1.087,2.444,2.444,0,0,0,.744,1.81,3.578,3.578,0,0,0,1.752.95,8.05,8.05,0,0,0,3.974-.427,6.3,6.3,0,0,0,1.81-.718,2.006,2.006,0,0,0,.639-.66,1.8,1.8,0,0,0,.211-.871,1.224,1.224,0,0,0-.285-.808.781.781,0,0,0-.739-.248,1.483,1.483,0,0,0-1,1.277,1.747,1.747,0,0,0,.749,1.462,3.6,3.6,0,0,0,1.583.691,6.191,6.191,0,0,0,3.293-.29,6.386,6.386,0,0,0,2.57-1.736,2.591,2.591,0,0,0,.686-1.246.865.865,0,0,0-.528-1.056,1.056,1.056,0,0,0-1.13.354,1.488,1.488,0,0,0-.248,1.161,2.523,2.523,0,0,0,1.4,1.731,9.633,9.633,0,0,0,3.615,1.056,10.376,10.376,0,0,0,2.4-.084l.618-.116A1.408,1.408,0,0,1,271.214,156Z" transform="translate(-220.366 -112.862)" fill="#0984e3"></path>
      <path id="Path_150599" data-name="Path 150599" d="M374.073,155.03a3.537,3.537,0,0,1-.665.327,5.927,5.927,0,0,1-2.079.438,6.4,6.4,0,0,1-3.262-.76,4.053,4.053,0,0,1-1.583-1.4,1.842,1.842,0,0,1-.285-1.145,1.584,1.584,0,0,1,.612-1.087,1,1,0,0,1,.644-.211.971.971,0,0,1,.639.269,1.583,1.583,0,0,1,.427,1.3,2.306,2.306,0,0,1-.665,1.251,5.373,5.373,0,0,1-1.151.881,6.862,6.862,0,0,1-2.887.924,5.494,5.494,0,0,1-3.167-.586,3.135,3.135,0,0,1-1.224-1.182,2.38,2.38,0,0,1-.28-.844,2.164,2.164,0,0,1,1.388-2.159,1.219,1.219,0,0,1,.95.095,1.472,1.472,0,0,1,.633.707,2.19,2.19,0,0,1-.069,1.853,3.853,3.853,0,0,1-1.256,1.383,6.962,6.962,0,0,1-7.21.433,5.479,5.479,0,0,1-1.488-1.108,2.513,2.513,0,0,1-.739-1.694,1.673,1.673,0,0,1,1.013-1.5,1.013,1.013,0,0,1,.95.111,1.372,1.372,0,0,1,.528.771,2,2,0,0,1-.354,1.71,5.336,5.336,0,0,1-1.219,1.172,7.431,7.431,0,0,1-5.948,1.3,4,4,0,0,1-2.417-1.446,2.222,2.222,0,0,1-.449-1.283,2.418,2.418,0,0,1,.317-1.267,1.583,1.583,0,0,1,.976-.776,1.378,1.378,0,0,1,1.151.259,2.111,2.111,0,0,1,.781,1.937,2.6,2.6,0,0,1-.934,1.583,3.441,3.441,0,0,1-1.378.7,6.692,6.692,0,0,1-2.111.132l-.528-.048a.742.742,0,0,1-.185,0,.82.82,0,0,1,.185,0h.554a7.136,7.136,0,0,0,2.111-.179,3.41,3.41,0,0,0,1.319-.7,2.465,2.465,0,0,0,.818-1.552,1.969,1.969,0,0,0-.728-1.773,1.224,1.224,0,0,0-1.008-.216,1.43,1.43,0,0,0-.85.7,2.111,2.111,0,0,0,.132,2.322,3.821,3.821,0,0,0,2.3,1.351,7.2,7.2,0,0,0,5.764-1.256,5.146,5.146,0,0,0,1.151-1.124,1.731,1.731,0,0,0,.311-1.488,1.1,1.1,0,0,0-.417-.623.75.75,0,0,0-.707-.084,1.409,1.409,0,0,0-.839,1.261,2.264,2.264,0,0,0,.67,1.5,5.326,5.326,0,0,0,1.42,1.056,6.814,6.814,0,0,0,3.52.755,6.613,6.613,0,0,0,3.4-1.177,3.562,3.562,0,0,0,1.193-1.256,1.937,1.937,0,0,0,.069-1.62,1.056,1.056,0,0,0-1.267-.66,1.905,1.905,0,0,0-1.2,1.879,2.069,2.069,0,0,0,.248.744,2.856,2.856,0,0,0,1.124,1.087,5.246,5.246,0,0,0,3,.57,6.655,6.655,0,0,0,2.776-.892,5.168,5.168,0,0,0,1.108-.834,2.112,2.112,0,0,0,.612-1.129,1.372,1.372,0,0,0-.359-1.129.781.781,0,0,0-1.029-.048,1.42,1.42,0,0,0-.528.95,1.747,1.747,0,0,0,.253,1.056,3.964,3.964,0,0,0,1.515,1.346,6.286,6.286,0,0,0,3.167.792,6.4,6.4,0,0,0,2.058-.38C373.846,155.146,374.062,155.014,374.073,155.03Z" transform="translate(-271.591 -112.522)" fill="#0984e3"></path>
      <path id="Path_150600" data-name="Path 150600" d="M272.886,200.34a1.056,1.056,0,0,1-.2.1l-.607.274c-.528.238-1.325.586-2.365.976a19.318,19.318,0,0,1-3.916,1.056,14.96,14.96,0,0,1-2.533.153,8.529,8.529,0,0,1-2.818-.422,3.362,3.362,0,0,1-2.143-2.233,2.2,2.2,0,0,1,.211-1.684,1.9,1.9,0,0,1,1.457-.982,1.62,1.62,0,0,1,1.515.976,2.491,2.491,0,0,1,.132,1.879,3.694,3.694,0,0,1-1.1,1.583,7.229,7.229,0,0,1-1.657,1.056,5.684,5.684,0,0,1-4.006.47,4.069,4.069,0,0,1-2.787-3.072,3.287,3.287,0,0,1,0-1.114,2.111,2.111,0,0,1,.454-1.056,1.409,1.409,0,0,1,1.013-.586,1.013,1.013,0,0,1,.976.681,2.718,2.718,0,0,1-.391,2.243,6.8,6.8,0,0,1-1.478,1.752,6.249,6.249,0,0,1-8.271-.127,3.521,3.521,0,0,1-1.056-1.889,2.159,2.159,0,0,1,.069-1.1,2.248,2.248,0,0,1,.617-.9,1.805,1.805,0,0,1,.987-.459,1.3,1.3,0,0,1,1.056.322,2.011,2.011,0,0,1,.47,1.979,3.694,3.694,0,0,1-1.093,1.657,8.8,8.8,0,0,1-1.536,1.145,8.893,8.893,0,0,1-3.446,1.172,7.805,7.805,0,0,1-3.388-.3,3.747,3.747,0,0,1-1.393-.839,2.6,2.6,0,0,1-.755-1.362,2.375,2.375,0,0,1,.137-1.483,1.457,1.457,0,0,1,1.108-.86,1.641,1.641,0,0,1,1.288.354,1.2,1.2,0,0,1,.406,1.172,1.831,1.831,0,0,1-.607,1,4.021,4.021,0,0,1-.892.591,9.891,9.891,0,0,1-1.736.665,9.717,9.717,0,0,1-2.533.375,5.8,5.8,0,0,1-.892-.037h.892a10.414,10.414,0,0,0,2.5-.422,10.558,10.558,0,0,0,1.71-.681,3.828,3.828,0,0,0,.855-.581,1.7,1.7,0,0,0,.528-.918,1.056,1.056,0,0,0-.364-1.024,1.509,1.509,0,0,0-1.156-.306,1.277,1.277,0,0,0-.966.771,2.174,2.174,0,0,0-.116,1.362,2.876,2.876,0,0,0,2.027,2.043,7.5,7.5,0,0,0,3.288.274,8.656,8.656,0,0,0,4.84-2.27,3.425,3.425,0,0,0,1.024-1.546,1.758,1.758,0,0,0-.4-1.721,1.251,1.251,0,0,0-1.678.148,1.989,1.989,0,0,0-.528.786,1.921,1.921,0,0,0-.058.966,3.283,3.283,0,0,0,1,1.742,5.985,5.985,0,0,0,7.917.111,6.366,6.366,0,0,0,1.42-1.684,3.03,3.03,0,0,0,.406-.987,1.847,1.847,0,0,0-.032-1.019.76.76,0,0,0-.713-.528,1.166,1.166,0,0,0-.813.486,2.444,2.444,0,0,0-.4,1.942,3.811,3.811,0,0,0,2.6,2.866,5.436,5.436,0,0,0,3.821-.443,4.788,4.788,0,0,0,2.639-2.5,2.254,2.254,0,0,0-.116-1.7,1.383,1.383,0,0,0-1.288-.855,1.684,1.684,0,0,0-1.283.866,1.969,1.969,0,0,0-.2,1.52,3.167,3.167,0,0,0,2.006,2.111,8.313,8.313,0,0,0,2.755.433,14.744,14.744,0,0,0,2.507-.132,19.6,19.6,0,0,0,3.9-.987c1.056-.375,1.837-.707,2.38-.924l.618-.253Z" transform="translate(-219.474 -134.519)" fill="#0984e3"></path>
    </g>
    <g id="freepik--Plant--inject-38" transform="translate(205.16 182.886)">
      <path id="Path_150601" data-name="Path 150601" d="M387.415,386.683s-12.139-13.976-16.731-27.973-2.4-12.371-2.4-12.371,6.186,13.575,10.883,20.135,13.063,16.182,13.063,16.182Z" transform="translate(-367.761 -332.652)" fill="#455a64"></path>
      <path id="Path_150602" data-name="Path 150602" d="M408.438,350.222a.707.707,0,0,0-1.314.449c.739,4.914,2.338,16.435,2.28,23.909-.084,9.706,0,13.459,0,13.459h5.04s-.9-20.056-2.043-26.189A41.294,41.294,0,0,0,408.438,350.222Z" transform="translate(-386.345 -334.345)" fill="#455a64"></path>
      <path id="Path_150603" data-name="Path 150603" d="M414.85,384.849a53.636,53.636,0,0,0,4.159-15.09c.417-3.578-.327-8.408-1.43-14.852a39.283,39.283,0,0,1-.639-7.141,1.2,1.2,0,0,1,2.264-.565,32.16,32.16,0,0,1,2.824,7.136c1.224,6.365,2.607,9.548,1.552,15.58s-4.956,15.338-4.956,15.338Z" transform="translate(-389.997 -332.786)" fill="#455a64"></path>
      <path id="Path_150604" data-name="Path 150604" d="M423.456,378.338s13.337-28.654,14.25-32.908,4.064-14.045,4.433-13.49.929,5.727-1.478,11.643-12.667,35.631-12.667,35.631H423.44" transform="translate(-394.053 -325.869)" fill="#455a64"></path>
      <path id="Path_150605" data-name="Path 150605" d="M391.3,384.187a2.57,2.57,0,0,1-.375-.253c-.238-.179-.6-.433-1.056-.792a47.63,47.63,0,0,1-3.584-3.167,60.385,60.385,0,0,1-9.674-12.419,81.566,81.566,0,0,1-6.6-14.3c-.67-1.905-1.156-3.462-1.478-4.544-.158-.528-.274-.961-.354-1.251a2.72,2.72,0,0,1-.1-.438,2.447,2.447,0,0,1,.158.422l.4,1.235c.354,1.056.871,2.639,1.583,4.507a86.614,86.614,0,0,0,6.661,14.25,62.852,62.852,0,0,0,9.569,12.419c1.43,1.42,2.639,2.5,3.515,3.22.422.369.771.633,1,.829A3.172,3.172,0,0,1,391.3,384.187Z" transform="translate(-367.911 -333.001)" fill="#263238"></path>
      <path id="Path_150606" data-name="Path 150606" d="M411.785,372.37a5.806,5.806,0,0,1-.116-.844l-.248-2.3c-.211-1.937-.528-4.613-1.013-7.547s-1-5.584-1.4-7.489l-.486-2.259a4.28,4.28,0,0,1-.148-.834,5.723,5.723,0,0,1,.253.807c.153.528.348,1.293.575,2.243.459,1.9,1.019,4.539,1.494,7.484s.771,5.632.929,7.574c.079.976.132,1.763.158,2.312a4.8,4.8,0,0,1,.005.85Z" transform="translate(-386.937 -334.927)" fill="#263238"></path>
      <path id="Path_150607" data-name="Path 150607" d="M419.565,347.34a1.852,1.852,0,0,1,.158.364c.1.269.232.623.4,1.056s.38,1.029.57,1.7.454,1.43.649,2.3l.332,1.346c.111.47.19.966.29,1.473.216,1.019.354,2.111.528,3.283a49.085,49.085,0,0,1-.528,15.148c-.248,1.14-.459,2.233-.749,3.23-.137.5-.253.992-.4,1.451s-.29.9-.428,1.319c-.253.85-.565,1.583-.813,2.243s-.48,1.214-.691,1.663l-.475,1.056a1.748,1.748,0,0,1-.185.348,2.852,2.852,0,0,1,.132-.375c.111-.264.248-.617.428-1.056s.417-1.013.644-1.673.528-1.4.771-2.248c.127-.422.264-.866.406-1.319s.248-.95.38-1.451c.28-1,.48-2.085.718-3.22a50.606,50.606,0,0,0,.528-15.074c-.153-1.151-.28-2.248-.486-3.262-.095-.528-.169-1-.274-1.473s-.211-.918-.311-1.346c-.179-.866-.422-1.626-.607-2.3s-.364-1.251-.528-1.721l-.348-1.056A1.823,1.823,0,0,1,419.565,347.34Z" transform="translate(-391.593 -333.152)" fill="#263238"></path>
      <path id="Path_150608" data-name="Path 150608" d="M443.986,333.05a1.155,1.155,0,0,1,0,.127,2.76,2.76,0,0,1-.063.375c-.058.322-.132.807-.264,1.425-.253,1.235-.686,3.008-1.351,5.156s-1.583,4.682-2.639,7.452-2.328,5.806-3.51,9.015-2.111,6.333-3,9.194-1.684,5.4-2.47,7.51a48.85,48.85,0,0,1-2.111,4.9c-.274.565-.528.987-.681,1.283l-.185.327a.488.488,0,0,1-.074.106l.047-.121c.047-.09.1-.206.164-.343.142-.3.369-.728.628-1.3.528-1.135,1.256-2.8,2.016-4.919s1.583-4.671,2.407-7.521,1.779-5.99,2.982-9.215,2.444-6.244,3.536-9.009,2.021-5.278,2.708-7.415,1.145-3.9,1.436-5.125c.148-.607.237-1.087.317-1.409.032-.148.063-.269.084-.369A.39.39,0,0,1,443.986,333.05Z" transform="translate(-396.036 -326.404)" fill="#263238"></path>
      <path id="Path_150609" data-name="Path 150609" d="M378.965,320.77a1.151,1.151,0,0,0-1.889,1.172,32.458,32.458,0,0,0,1.673,4.312c1.831,3.9,7.22,17.871,9.738,25.55s6.075,22,6.075,22l5.383-.876s-4.924-23.529-9.738-32.011C386.338,334.108,382.475,324.259,378.965,320.77Z" transform="translate(-372.136 -320.458)" fill="#455a64"></path>
      <path id="Path_150610" data-name="Path 150610" d="M401.53,388.94a3,3,0,0,1,.28.649c.158.422.375,1.056.623,1.805.5,1.536,1.1,3.695,1.71,6.064s1.119,4.55,1.473,6.122c.164.744.3,1.367.406,1.863a3.166,3.166,0,0,1,.111.7,3.281,3.281,0,0,1-.222-.67c-.127-.491-.3-1.108-.491-1.842-.412-1.62-.955-3.747-1.552-6.1s-1.188-4.528-1.631-6.075l-.528-1.831a3.7,3.7,0,0,1-.179-.681Z" transform="translate(-383.707 -352.796)" fill="#263238"></path>
      <path id="Path_150611" data-name="Path 150611" d="M397.813,373.564a.528.528,0,0,1-.032-.143,3.476,3.476,0,0,0-.058-.427c-.058-.369-.106-.924-.222-1.626a60.021,60.021,0,0,0-1.129-5.938,84.855,84.855,0,0,0-2.518-8.6c-1.1-3.167-2.491-6.634-4.059-10.2-3.167-7.125-6.333-13.443-8.408-18.119-1.056-2.328-1.863-4.222-2.4-5.558-.274-.66-.47-1.177-.607-1.531-.058-.164-.106-.3-.148-.4a.529.529,0,0,1-.042-.143.656.656,0,0,1,.069.132l.174.391c.158.364.38.871.654,1.509.57,1.314,1.409,3.2,2.481,5.521,2.111,4.645,5.315,10.946,8.487,18.082,1.583,3.573,2.956,7.025,4.048,10.229a81.655,81.655,0,0,1,2.46,8.64,60.3,60.3,0,0,1,1.056,5.969c.1.707.132,1.261.169,1.636a2.331,2.331,0,0,0,.032.428A.527.527,0,0,1,397.813,373.564Z" transform="translate(-372.686 -320.657)" fill="#263238"></path>
      <path id="Path_150612" data-name="Path 150612" d="M415.175,399.631a5.283,5.283,0,0,1-.185-.9c-.106-.633-.248-1.467-.417-2.475-.369-2.111-.939-4.956-1.752-8.086s-1.715-5.911-2.412-7.917l-.844-2.365a6.071,6.071,0,0,1-.285-.876,5.2,5.2,0,0,1,.391.839c.232.528.554,1.341.929,2.333a77.7,77.7,0,0,1,2.5,7.917,82.111,82.111,0,0,1,1.678,8.123c.153,1.056.269,1.9.327,2.491A6.865,6.865,0,0,1,415.175,399.631Z" transform="translate(-387.366 -347.162)" fill="#263238"></path>
      <rect id="Rectangle_110307" data-name="Rectangle 110307" width="21.011" height="25.598" transform="translate(17.844 51.698)" fill="#0984e3"></rect>
      <g id="Group_132130" data-name="Group 132130" transform="translate(17.844 51.698)" opacity="0.3">
        <rect id="Rectangle_110308" data-name="Rectangle 110308" width="21.011" height="25.598"></rect>
      </g>
      <rect id="Rectangle_110309" data-name="Rectangle 110309" width="18.642" height="25.598" transform="translate(13.511 51.698)" fill="#0984e3"></rect>
    </g>
    <g id="freepik--Character--inject-38" transform="translate(26.777 68.374)">
      <path id="Path_150613" data-name="Path 150613" d="M104.642,140.566l-.6,48.092c-.1,8.175,1.42,20.209,14.356,19.782h0c11.2-1.219,14.171-11.817,14.25-19.449.042-3.621.084-6.64.111-7.009,0,0,12.255-1,13.29-13.11.5-5.848.528-17.982.47-28.96a22.626,22.626,0,0,0-20.99-22.384l-1.172-.09C111.7,117.259,104.479,127.9,104.642,140.566Z" transform="translate(-64.848 -110.078)" fill="#ffbe9d"></path>
      <path id="Path_150614" data-name="Path 150614" d="M144.663,234.536a29.388,29.388,0,0,1-15.433-5.806s3.2,9.131,15.369,8.92Z" transform="translate(-76.742 -162.632)" fill="#eb996e"></path>
      <path id="Path_150615" data-name="Path 150615" d="M138.66,167.5c-.238.248-1.636-.881-3.668-.934s-3.541.939-3.753.681c-.106-.116.143-.565.808-1.029a5.067,5.067,0,0,1,3.014-.855,4.877,4.877,0,0,1,2.908,1.056C138.581,166.934,138.781,167.4,138.66,167.5Z" transform="translate(-77.679 -132.71)" fill="#263238"></path>
      <path id="Path_150616" data-name="Path 150616" d="M142.273,175.952a1.647,1.647,0,0,1-1.7,1.536,1.583,1.583,0,0,1-1.583-1.583,1.641,1.641,0,0,1,1.694-1.536,1.583,1.583,0,0,1,1.589,1.583Z" transform="translate(-81.35 -136.962)" fill="#263238"></path>
      <path id="Path_150617" data-name="Path 150617" d="M155,182.205a12.365,12.365,0,0,1,3.061-.322c.48,0,.939-.079,1.056-.4a2.417,2.417,0,0,0-.211-1.43l-1.188-3.737c-1.583-5.278-2.676-9.637-2.465-9.7s1.668,4.185,3.241,9.5c.38,1.309.739,2.549,1.056,3.742a2.743,2.743,0,0,1,.111,1.884,1.187,1.187,0,0,1-.834.639,3.22,3.22,0,0,1-.813.053A11.661,11.661,0,0,1,155,182.205Z" transform="translate(-88.91 -133.303)" fill="#263238"></path>
      <path id="Path_150618" data-name="Path 150618" d="M136.935,153.637c-.2.454-1.821.111-3.763.211s-3.547.528-3.768.1c-.1-.211.2-.623.86-1.024a6.128,6.128,0,0,1,2.85-.8,6,6,0,0,1,2.887.57C136.687,153.02,137.019,153.41,136.935,153.637Z" transform="translate(-76.814 -126.453)" fill="#263238"></path>
      <path id="Path_150619" data-name="Path 150619" d="M173.557,160.68c-.211.369-1.795-.037-3.695-.1s-3.51.185-3.695-.2c-.084-.179.232-.528.9-.8a6.777,6.777,0,0,1,2.84-.47,6.919,6.919,0,0,1,2.818.7C173.346,160.152,173.652,160.506,173.557,160.68Z" transform="translate(-94.178 -129.754)" fill="#263238"></path>
      <path id="Path_150620" data-name="Path 150620" d="M98.218,177.863c-.2-.106-8.149-3.072-8.487,5.23s8.054,6.935,8.091,6.7S98.218,177.863,98.218,177.863Z" transform="translate(-58.085 -138.329)" fill="#ffbe9d"></path>
      <path id="Path_150621" data-name="Path 150621" d="M97.308,188.934c-.037-.026-.153.095-.4.2a1.441,1.441,0,0,1-1.056,0c-.866-.359-1.546-1.779-1.525-3.278a4.787,4.787,0,0,1,.491-2.053,1.657,1.657,0,0,1,1.135-1.056.728.728,0,0,1,.834.428c.106.238.042.4.09.417s.185-.132.127-.475a.908.908,0,0,0-.3-.528,1.108,1.108,0,0,0-.792-.248,2.048,2.048,0,0,0-1.583,1.23,4.993,4.993,0,0,0-.6,2.291c0,1.678.781,3.278,1.963,3.695a1.583,1.583,0,0,0,1.335-.164C97.282,189.135,97.335,188.95,97.308,188.934Z" transform="translate(-59.978 -140.723)" fill="#eb996e"></path>
      <path id="Path_150622" data-name="Path 150622" d="M147.287,202.265c.09-.211-1.536-.7-2.681-2.227a9.394,9.394,0,0,1-1.151-2.164c-.243-.607-.428-.982-.528-.955s-.069.433.069,1.093a6.18,6.18,0,0,0,1.056,2.428,4.94,4.94,0,0,0,2.111,1.62C146.833,202.318,147.261,202.334,147.287,202.265Z" transform="translate(-83.182 -147.61)" fill="#263238"></path>
      <path id="Path_150623" data-name="Path 150623" d="M173.672,168.954c-.243.243-1.641-.881-3.695-.934s-3.541.939-3.758.681c-.106-.116.148-.565.808-1.029a5.067,5.067,0,0,1,3.014-.855,4.893,4.893,0,0,1,2.913,1.056C173.587,168.384,173.788,168.843,173.672,168.954Z" transform="translate(-94.197 -133.394)" fill="#263238"></path>
      <path id="Path_150624" data-name="Path 150624" d="M176.793,177.073a1.647,1.647,0,0,1-1.7,1.536,1.583,1.583,0,0,1-1.583-1.583,1.647,1.647,0,0,1,1.7-1.536A1.583,1.583,0,0,1,176.793,177.073Z" transform="translate(-97.651 -137.491)" fill="#263238"></path>
      <path id="Path_150625" data-name="Path 150625" d="M148.814,117.252a6.555,6.555,0,0,0-8.17-2.586,8.972,8.972,0,0,0-15.448-7.737,3.652,3.652,0,0,0-1.789-2.454,7.2,7.2,0,0,0-2.977-.892,14.25,14.25,0,0,0-13.021,5.679,15.512,15.512,0,0,0-13.147,4.8c-3.9,4.323-4.639,14.335-.364,22.985l1,5.42a4.984,4.984,0,0,1,3.394.834c1.124,1.008,1.626,2.908,3.489,2.19.95-.369,1.816-2.359,2.111-3.325a47.322,47.322,0,0,0,2.048-20,15.163,15.163,0,0,1,4.687-3.383l-.142.132c3.383-1.177,7.21-2.333,10.419-.744,2.491,1.23,3.958,3.816,5.806,5.874a19,19,0,0,0,13.548,6.26c.179,3.41-.106,8.228.074,11.611l2.919-5.426h0a13,13,0,0,0,.618-1.2l.063-.127h0c.528-.428.918-1.209,1.805-2.222a7.146,7.146,0,0,0,1.177-7.32,6.55,6.55,0,0,0,1.9-8.36Z" transform="translate(-58.689 -103.495)" fill="#263238"></path>
      <path id="Path_150626" data-name="Path 150626" d="M193.13,159.86Z" transform="translate(-106.916 -130.111)" fill="#263238"></path>
      <path id="Path_150627" data-name="Path 150627" d="M178.456,129.8a.87.87,0,0,1,.063.179,2.568,2.568,0,0,1,.074.528,3.594,3.594,0,0,1-.48,1.942,3.806,3.806,0,0,1-.929,1.056,3.309,3.309,0,0,1-1.515.644,3.747,3.747,0,0,1-3.462-1.3l.206-.174A2.248,2.248,0,0,1,173,134.3a2.971,2.971,0,0,1-.929,2.111,3.367,3.367,0,0,1-1.963.839,5.278,5.278,0,0,1-3.41-.939,11.121,11.121,0,0,1-1.826-1.552,5.278,5.278,0,0,1-.581-.654,5.891,5.891,0,0,1,.654.581,13.089,13.089,0,0,0,1.858,1.462,5.141,5.141,0,0,0,3.278.85,3.167,3.167,0,0,0,1.81-.781,2.739,2.739,0,0,0,.834-1.9,2.016,2.016,0,0,0-.528-1.436l.206-.179a3.52,3.52,0,0,0,3.209,1.235,3.241,3.241,0,0,0,2.322-1.583,3.694,3.694,0,0,0,.528-1.853A5.162,5.162,0,0,0,178.456,129.8Z" transform="translate(-93.297 -115.916)" fill="#455a64"></path>
      <path id="Path_150628" data-name="Path 150628" d="M164.211,112.56a.37.37,0,0,1,.179.079,3.94,3.94,0,0,1,.459.311,4.059,4.059,0,0,1,1.256,1.626,3.2,3.2,0,0,1-.285,2.993,2.47,2.47,0,0,1-1.515,1.056,2.507,2.507,0,0,1-1.937-.375,2.365,2.365,0,0,1-.459-.459l.238-.137a2.317,2.317,0,0,1-.063,1.868,2.518,2.518,0,0,1-1.2,1.235,3.357,3.357,0,0,1-2.829,0,4.544,4.544,0,0,1-1.525-1.145,2.253,2.253,0,0,1-.406-.57s.169.185.48.5a4.85,4.85,0,0,0,1.525,1.056,3.214,3.214,0,0,0,2.639-.048,2.328,2.328,0,0,0,1.056-1.124,2.074,2.074,0,0,0,.053-1.647l-.443-1.019.681.887a1.853,1.853,0,0,0,.4.391,2.227,2.227,0,0,0,1.721.338,2.2,2.2,0,0,0,1.356-.918,3.008,3.008,0,0,0,.311-2.776,4.191,4.191,0,0,0-1.14-1.615C164.427,112.713,164.2,112.581,164.211,112.56Z" transform="translate(-89.439 -107.776)" fill="#455a64"></path>
      <path id="Path_150629" data-name="Path 150629" d="M286.966,226.117l-19.185,14.641a2.486,2.486,0,0,0-.364,3.6h0a2.475,2.475,0,0,0,3.394.333l19-14.778,2.57-5.072Z" transform="translate(-141.708 -160.795)" fill="#0984e3"></path>
      <path id="Path_150630" data-name="Path 150630" d="M307.777,225.93l1.356,1.583-1.467,2.913a1.166,1.166,0,0,1-1.277-1.325,1.056,1.056,0,0,1-1.161-1.33s-1-.09-.433-1.14Z" transform="translate(-159.563 -161.31)" fill="#fff" opacity="0.5"></path>
      <path id="Path_150631" data-name="Path 150631" d="M268.65,254.163,271.8,258l1.056-.818-3.014-3.927Z" transform="translate(-142.577 -174.215)" fill="#263238"></path>
      <path id="Path_150632" data-name="Path 150632" d="M265.381,279.637l-.691-.127L278.8,254.842l-2.238-7.115s-2.586-10.128-.433-12.714c0,0,4.713-5.552,6.244-5.473s2.75.38,3.056,1.531c0,0,2.6-.306,3.288.528a13.154,13.154,0,0,1,1.224,1.837s2.829-.232,3.594,2.217c0,0,2.676,1.378,2.908,3.362s-.528,11.242-1.378,13.612-3.98,7.342-4.893,14.683-4.154,12.108-7.03,22.832l-7.806,3.088Z" transform="translate(-140.707 -163.014)" fill="#ffbe9d"></path>
      <path id="Path_150633" data-name="Path 150633" d="M301.365,232.14a14.365,14.365,0,0,0-1.647,1.911,17.866,17.866,0,0,0-1.008,2.312,4.782,4.782,0,0,1,2.639-4.222Z" transform="translate(-156.772 -164.242)" fill="#eb996e"></path>
      <path id="Path_150634" data-name="Path 150634" d="M309.84,236.92a15.422,15.422,0,0,0-1.61,1.71,15.842,15.842,0,0,0-1.056,2.111,3.559,3.559,0,0,1,.8-2.28A3.7,3.7,0,0,1,309.84,236.92Z" transform="translate(-160.755 -166.499)" fill="#eb996e"></path>
      <path id="Path_150635" data-name="Path 150635" d="M316.95,241c.058.074-.644.691-1.288,1.62s-.992,1.8-1.082,1.768a3.747,3.747,0,0,1,.818-1.948A3.694,3.694,0,0,1,316.95,241Z" transform="translate(-164.265 -168.426)" fill="#eb996e"></path>
      <path id="Path_150636" data-name="Path 150636" d="M291.22,241.991a5.5,5.5,0,0,0-1.583-.269,5.278,5.278,0,0,0-1.52.48c-.026,0,.074-.2.333-.391a2.312,2.312,0,0,1,2.37-.158A.929.929,0,0,1,291.22,241.991Z" transform="translate(-151.767 -168.615)" fill="#eb996e"></path>
      <path id="Path_150637" data-name="Path 150637" d="M302.1,247.2a6.333,6.333,0,0,0-1.166-1.393,6.466,6.466,0,0,0-1.652-.755c.011-.1.216-.09.57-.048a2.808,2.808,0,0,1,2.138,1.631C302.125,246.967,302.135,247.189,302.1,247.2Z" transform="translate(-157.041 -170.303)" fill="#eb996e"></path>
      <path id="Path_150638" data-name="Path 150638" d="M311.909,250.27a7.3,7.3,0,0,0-1.736-.9,6.934,6.934,0,0,0-1.953-.1c0-.037.185-.164.559-.253a3.167,3.167,0,0,1,2.776.749C311.83,250.033,311.936,250.249,311.909,250.27Z" transform="translate(-161.262 -172.181)" fill="#eb996e"></path>
      <path id="Path_150639" data-name="Path 150639" d="M38.03,302.44s-8.661,49.127-8.234,53.724,2.718,11.9,7.917,13.153a22.985,22.985,0,0,0,10.028,0l-6.233-60.342Z" transform="translate(-29.781 -197.439)" fill="#0984e3"></path>
      <path id="Path_150640" data-name="Path 150640" d="M70.639,245.829s-10.355,7.389-12.667,9.527C48.4,264.407,46.4,268.113,45.305,271.19s6.65,74.171,6.65,74.171l1.583,12.43h0l72.661.185h0V294.486L115.291,249.8l-6.719-1.911-1.356-5.325s-8.344-6.165-22.109-6.333c-4.222-.058-10.229,1.61-13.575,4.222h0Z" transform="translate(-37.062 -166.172)" fill="#0984e3"></path>
      <path id="Path_150641" data-name="Path 150641" d="M157.166,262.091s7.468-.332,8.128-.185c2.3.528,8.619,6.333,15.834,13.469,6.861,6.809,20.383,20.98,20.383,20.98s2.428-2.449,5.2.823l10.667-15.517s16.024,1.963,18.515,14.055c0,0-4.908,9.374-8.93,16.071,0,0-14.878,24.7-26.632,20.22-10.735-4.1-24.2-15.01-26.094-17.343L158.4,303.385s-10.83-20.647-6.043-30.971Z" transform="translate(-87.086 -178.28)" fill="#0984e3"></path>
      <path id="Path_150642" data-name="Path 150642" d="M131.335,255.243a1.684,1.684,0,0,1-.38-.079l-1.056-.285c-.934-.238-2.3-.565-4-.887a112.186,112.186,0,0,0-13.411-1.652,91.306,91.306,0,0,0-13.506.042c-1.726.148-3.109.364-4.059.528l-1.093.216a1.341,1.341,0,0,1-.385.053,1.826,1.826,0,0,1,.369-.116l1.082-.274a36.3,36.3,0,0,1,4.064-.639,83.062,83.062,0,0,1,13.548-.132,99.342,99.342,0,0,1,13.422,1.752c1.7.354,3.056.713,3.99.992l1.056.343A1.646,1.646,0,0,1,131.335,255.243Z" transform="translate(-59.846 -173.527)" fill="#263238"></path>
      <path id="Path_150643" data-name="Path 150643" d="M110.911,246.418a11.881,11.881,0,0,1-.528-2.718,12.589,12.589,0,0,1-.222-2.76,12.4,12.4,0,0,1,.528,2.718A11.91,11.91,0,0,1,110.911,246.418Z" transform="translate(-67.723 -168.398)" fill="#263238"></path>
      <path id="Path_150644" data-name="Path 150644" d="M116.16,245.96a8.672,8.672,0,0,1-.38-5.5c.1,0-.048,1.246.058,2.76S116.25,245.933,116.16,245.96Z" transform="translate(-70.259 -168.171)" fill="#263238"></path>
      <g id="Group_132131" data-name="Group 132131" transform="translate(33.815 78.494)" opacity="0.3">
        <path id="Path_150645" data-name="Path 150645" d="M93.85,253.321c11.369,2.011,22.9,0,34.929,1.441-11.611-2.407-23.719-3.547-34.929-1.441" transform="translate(-93.85 -252.217)"></path>
      </g>
      <g id="Group_132132" data-name="Group 132132" transform="translate(8.504 123.796)" opacity="0.3">
        <path id="Path_150646" data-name="Path 150646" d="M51.227,386.227c-6.4-14.984-5.637-31.916-4.75-48.177Z" transform="translate(-45.893 -338.05)"></path>
      </g>
      <path id="Path_150647" data-name="Path 150647" d="M45.409,322.73a.9.9,0,0,1,.032.19c0,.143.042.327.069.554.053.528.132,1.23.227,2.148.185,1.884.454,4.576.781,7.917.649,6.661,1.536,15.871,2.6,26.031s2.111,19.349,2.966,25.988c.417,3.32.776,6.006,1.056,7.859.121.913.216,1.631.28,2.138.032.232.053.417.069.559a1.055,1.055,0,0,1,0,.19.791.791,0,0,1-.042-.185l-.1-.554c-.079-.528-.2-1.219-.338-2.111-.29-1.853-.686-4.534-1.135-7.848-.9-6.634-2-15.834-3.061-25.988s-1.911-19.375-2.5-26.041c-.285-3.32-.528-6.017-.681-7.917-.069-.918-.127-1.636-.164-2.148a2.5,2.5,0,0,0-.037-.565.881.881,0,0,1-.016-.216Z" transform="translate(-37.16 -207.02)" fill="#263238"></path>
      <path id="Path_150648" data-name="Path 150648" d="M97.835,307.4a2.419,2.419,0,0,1-.464.026H96.024c-1.161,0-2.85,0-4.93.058-4.164.095-9.912.4-16.219,1.145s-11.97,1.821-16.04,2.729c-2.037.438-3.695.818-4.808,1.1l-1.309.306a2.773,2.773,0,0,1-.459.084,2.589,2.589,0,0,1,.443-.148L54,312.336c1.124-.317,2.76-.728,4.792-1.2a151.773,151.773,0,0,1,32.3-3.848c2.111,0,3.774,0,4.94.042l1.341.053A2.894,2.894,0,0,1,97.835,307.4Z" transform="translate(-40.396 -199.729)" fill="#263238"></path>
      <path id="Path_150649" data-name="Path 150649" d="M85.728,310.464c-.09,0,.079-6.8.369-15.19s.607-15.19.7-15.185-.079,6.8-.375,15.2S85.813,310.47,85.728,310.464Z" transform="translate(-56.188 -186.885)" fill="#263238"></path>
      <path id="Path_150650" data-name="Path 150650" d="M148.8,300.211a3.971,3.971,0,0,1-.269-.428q-.28-.47-.728-1.251l-2.681-4.608a39.662,39.662,0,0,1-3.362-7.162,23.32,23.32,0,0,1-1-4.581,27.631,27.631,0,0,1,0-5.035,26.8,26.8,0,0,1,2.4-9.379,15.639,15.639,0,0,1,2.37-3.531,13.463,13.463,0,0,1,2.84-2.37,10.825,10.825,0,0,1,5.04-1.689,7.009,7.009,0,0,1,1.953.111,18.212,18.212,0,0,0-1.942,0,10.957,10.957,0,0,0-4.93,1.752,13.407,13.407,0,0,0-2.766,2.359,15.454,15.454,0,0,0-2.3,3.483,26.827,26.827,0,0,0-2.349,9.279,27.844,27.844,0,0,0,0,4.966,23.588,23.588,0,0,0,.971,4.523,41.269,41.269,0,0,0,3.278,7.146l2.591,4.655.681,1.283A2.873,2.873,0,0,1,148.8,300.211Z" transform="translate(-82.131 -177.471)" fill="#263238"></path>
      <g id="Group_132133" data-name="Group 132133" transform="translate(12.783 107.822)" opacity="0.3">
        <path id="Path_150651" data-name="Path 150651" d="M54.259,313.023a86.914,86.914,0,0,0,13.654-1.8,20.916,20.916,0,0,0-.765,6.107,14.039,14.039,0,0,0,3.035-5.589,8.445,8.445,0,0,0,3.446,5.658,18.536,18.536,0,0,0,.306-6.223q10.192-1.224,20.246-3.351a137.311,137.311,0,0,0-40.181,5" transform="translate(-54 -307.784)"></path>
      </g>
      <path id="Path_150652" data-name="Path 150652" d="M194.331,362.722a1.443,1.443,0,0,1-.311-.185l-.871-.581c-.749-.528-1.826-1.251-3.167-2.185-2.639-1.858-6.286-4.47-10.25-7.426s-7.505-5.7-10.028-7.711c-1.267-1-2.291-1.826-2.993-2.4l-.8-.665a1.7,1.7,0,0,1-.269-.248,2.115,2.115,0,0,1,.306.206l.834.623,3.045,2.333c2.57,1.974,6.128,4.687,10.091,7.642s7.553,5.589,10.192,7.5l3.1,2.259.839.617A2.2,2.2,0,0,1,194.331,362.722Z" transform="translate(-93.935 -215.798)" fill="#263238"></path>
      <path id="Path_150653" data-name="Path 150653" d="M249.891,339.29c-.048,0,0-.8-.111-2.074a21.766,21.766,0,0,0-2.935-9.453c-.649-1.1-1.124-1.742-1.087-1.773a2.148,2.148,0,0,1,.375.422,14.685,14.685,0,0,1,.876,1.251,19.307,19.307,0,0,1,2.966,9.542,13.659,13.659,0,0,1,0,1.525A2.144,2.144,0,0,1,249.891,339.29Z" transform="translate(-131.766 -208.559)" fill="#263238"></path>
      <path id="Path_150654" data-name="Path 150654" d="M258.664,339.159a15.309,15.309,0,0,1,.132-1.626,20.729,20.729,0,0,0-.074-3.906,20.424,20.424,0,0,0-.818-3.821c-.3-.961-.528-1.536-.5-1.557a1.472,1.472,0,0,1,.216.385,11.271,11.271,0,0,1,.464,1.108,16.952,16.952,0,0,1,.9,7.811c-.063.5-.132.908-.2,1.182a1.584,1.584,0,0,1-.127.422Z" transform="translate(-137.267 -209.626)" fill="#263238"></path>
      <path id="Path_150655" data-name="Path 150655" d="M290.407,322.342a.288.288,0,0,0-.121-.2.622.622,0,0,1-.216-.232c-.058-.111-.1-.243-.174-.369-.142-.269-.5-.47-.749-.86a5.579,5.579,0,0,1-.633-1.393,9.369,9.369,0,0,0-1.816-3.42,15.308,15.308,0,0,0-1.631-1.626,17.413,17.413,0,0,0-1.969-1.5,16.153,16.153,0,0,0-2.111-1.3l-2.111-1.024c-.665-.317-1.288-.644-1.895-.9l-1.689-.723a6.693,6.693,0,0,1-.734-.333c-.227-.132-.412-.28-.6-.385l-.528-.29c-.169-.09-.311-.211-.438-.29-.259-.164-.486-.253-.633-.333s-.222-.121-.216-.132a1.056,1.056,0,0,1,.238.084,4.994,4.994,0,0,1,.67.29,7.336,7.336,0,0,0,1,.528c.206.1.4.248.612.364s.475.2.728.311l1.7.686c.607.248,1.24.575,1.916.887l2.111,1.008a16,16,0,0,1,2.138,1.319,16.315,16.315,0,0,1,2,1.531,14.777,14.777,0,0,1,1.647,1.663,9.3,9.3,0,0,1,1.805,3.52,5.83,5.83,0,0,0,.575,1.372c.222.369.565.586.713.892.079.148.111.285.158.385a.7.7,0,0,0,.179.232C290.459,322.231,290.412,322.352,290.407,322.342Z" transform="translate(-144.225 -199.601)" fill="#263238"></path>
      <path id="Path_150656" data-name="Path 150656" d="M178.337,411.211c-.074,0-.137-13.353-.137-29.826s.063-29.826.137-29.826.137,13.353.137,29.826S178.416,411.211,178.337,411.211Z" transform="translate(-99.866 -220.633)" fill="#263238"></path>
    </g>
  </g>
</svg>